<svg id="S2_Icon_ExportTo_20_N" xmlns="http://www.w3.org/2000/svg" width="23" height="23" viewBox="0 0 23 23">
  <g id="canvas_20">
    <rect id="S2_Icon_ExportTo_20_N-2" data-name="S2_Icon_ExportTo_20_N" width="23" height="23" fill="none" opacity="0.2"/>
  </g>
  <g id="icon_mock" transform="translate(2 1)">
    <path id="Path_1027482" data-name="Path 1027482" d="M22,1.882V6.874a.882.882,0,1,1-1.765,0V4.012l-7.611,7.611a.882.882,0,0,1-1.248-1.248l7.611-7.611H16.126a.882.882,0,0,1,0-1.765h4.991A.883.883,0,0,1,22,1.882ZM20.824,18.353V13.977a.882.882,0,0,0-1.765,0v4.376a.883.883,0,0,1-.882.882H4.647a.883.883,0,0,1-.882-.882V4.824a.883.883,0,0,1,.882-.882H9.131a.882.882,0,0,0,0-1.765H4.647A2.65,2.65,0,0,0,2,4.824V18.353A2.65,2.65,0,0,0,4.647,21H18.176A2.65,2.65,0,0,0,20.824,18.353Z" transform="translate(-2 -1)" fill="#222"/>
  </g>
</svg>
