<svg xmlns="http://www.w3.org/2000/svg" width="18" height="18" viewBox="0 0 18 18">
  <g id="Group_605801" data-name="Group 605801" transform="translate(-15008 -5807)">
    <rect id="S2_Icon_CommentText_20_N" width="18" height="18" transform="translate(15008 5807)" fill="none" opacity="0.2"/>
    <g id="Group_608204" data-name="Group 608204" transform="translate(0.234 -0.531)">
      <path id="Path_1027433" data-name="Path 1027433" d="M6.327,17.8a.688.688,0,0,1-.27-.055.7.7,0,0,1-.421-.642V14.085H4.455A3.475,3.475,0,0,1,1,10.6V5.486A3.475,3.475,0,0,1,4.455,2h9.674a3.475,3.475,0,0,1,3.455,3.486V10.6a3.475,3.475,0,0,1-3.455,3.486h-3.7L6.806,17.608a.685.685,0,0,1-.479.2ZM4.455,3.394A2.085,2.085,0,0,0,2.382,5.486V10.6A2.085,2.085,0,0,0,4.455,12.69H6.327a.694.694,0,0,1,.691.7v2.08l2.658-2.582a.687.687,0,0,1,.479-.2h3.975A2.085,2.085,0,0,0,16.2,10.6V5.486a2.085,2.085,0,0,0-2.073-2.092Z" transform="translate(15007.766 5806.532)" fill="#fff"/>
      <path id="Path_1027434" data-name="Path 1027434" d="M10.884,10.172h-4.3A.586.586,0,1,1,6.586,9h4.3a.586.586,0,0,1,0,1.172Z" transform="translate(15007.806 5806.265)" fill="#fff"/>
      <path id="Path_1027435" data-name="Path 1027435" d="M11.665,7.172H6.586A.586.586,0,1,1,6.586,6h5.079a.586.586,0,0,1,0,1.172Z" transform="translate(15007.877 5806.588)" fill="#fff"/>
      <path id="Path_1027437" data-name="Path 1027437" d="M10.884,10.172h-4.3A.586.586,0,1,1,6.586,9h4.3a.586.586,0,0,1,0,1.172Z" transform="translate(15007.806 5806.265)" fill="#fff"/>
      <path id="Path_1027438" data-name="Path 1027438" d="M11.665,7.172H6.586A.586.586,0,1,1,6.586,6h5.079a.586.586,0,0,1,0,1.172Z" transform="translate(15007.877 5806.588)" fill="#fff"/>
    </g>
  </g>
</svg>
