<?xml version="1.0" encoding="utf-8"?>
<!-- Generator: Adobe Illustrator 27.6.0, SVG Export Plug-In . SVG Version: 6.00 Build 0)  -->
<svg version="1.1" id="Layer_1" xmlns="http://www.w3.org/2000/svg" xmlns:xlink="http://www.w3.org/1999/xlink" x="0px" y="0px"
	 viewBox="0 0 20 20" style="enable-background:new 0 0 20 20;" xml:space="preserve">
<style type="text/css">
	.st0{fill:none;stroke:#AFAFAF;stroke-width:5;stroke-miterlimit:10;}
	.st1{fill:#FFFFFF;}
</style>
<g id="a">
	<rect x="-2417.5" y="-2566.5" class="st0" width="3540" height="4588"/>
</g>
<g id="e">
	<path class="st1" d="M17.2,18c-0.4,0-0.8-0.3-0.8-0.8c0-7.6-6.2-13.8-13.8-13.8C2.3,3.5,2,3.2,2,2.8S2.3,2,2.8,2
		C11.2,2,18,8.8,18,17.2C18,17.7,17.7,18,17.2,18z"/>
	<path class="st1" d="M13,18c-0.4,0-0.8-0.3-0.8-0.8c0-5.2-4.2-9.5-9.5-9.5C2.3,7.8,2,7.4,2,7s0.3-0.8,0.8-0.8c6,0,11,4.9,11,11
		C13.7,17.7,13.4,18,13,18z"/>
	<path class="st1" d="M5.2,17.8c-1.7,0-3-1.4-3-3s1.3-3,3-3s3,1.4,3,3S6.9,17.8,5.2,17.8z M5.2,13.3c-0.8,0-1.5,0.7-1.5,1.5
		s0.7,1.5,1.5,1.5s1.5-0.7,1.5-1.5S6.1,13.3,5.2,13.3z"/>
</g>
</svg>
