<svg xmlns="http://www.w3.org/2000/svg" width="18" height="18" viewBox="0 0 18 18">
  <g id="Group_605313" data-name="Group 605313" transform="translate(-146 -949)">
    <g id="canvas_20" transform="translate(146 949)">
      <rect id="S2_Icon_UserGroup_20_N" width="18" height="18" transform="translate(18 18) rotate(180)" fill="none" opacity="0.2"/>
    </g>
    <g id="icon_mock" transform="translate(146 950)">
      <path id="Path_1027626" data-name="Path 1027626" d="M12.1,11.659A4.154,4.154,0,0,1,8.026,7.434,4.154,4.154,0,0,1,12.1,3.21a4.154,4.154,0,0,1,4.071,4.224A4.154,4.154,0,0,1,12.1,11.659Zm0-6.988A2.685,2.685,0,0,0,9.505,7.434,2.685,2.685,0,0,0,12.1,10.2a2.685,2.685,0,0,0,2.591-2.764A2.685,2.685,0,0,0,12.1,4.671Zm-5.3,12.5c.213-1.94,2.542-3.459,5.3-3.459,2.785,0,5.113,1.515,5.3,3.45a.74.74,0,0,0,1.473-.14c-.261-2.675-3.236-4.771-6.775-4.771-3.564,0-6.476,2.047-6.774,4.762a.732.732,0,0,0,.656.8.767.767,0,0,0,.08,0,.736.736,0,0,0,.734-.652Zm.237-7.685a.727.727,0,0,0-.371-.965,2.766,2.766,0,0,1-1.6-2.553A2.685,2.685,0,0,1,7.653,3.2a2.449,2.449,0,0,1,.441.039.741.741,0,0,0,.862-.585.731.731,0,0,0-.592-.851,3.931,3.931,0,0,0-.71-.064A4.154,4.154,0,0,0,3.582,5.969,4.227,4.227,0,0,0,6.053,9.854a.745.745,0,0,0,.978-.367ZM2.35,15.707c.2-1.852,2.337-3.336,4.964-3.452a.733.733,0,0,0,.706-.762.723.723,0,0,0-.772-.7c-3.4.15-6.083,2.149-6.369,4.753a.732.732,0,0,0,.656.8.767.767,0,0,0,.08,0,.736.736,0,0,0,.734-.652Z" transform="translate(-0.875 -1.745)" fill="#fff"/>
    </g>
  </g>
</svg>
